<svg xmlns="http://www.w3.org/2000/svg" viewBox="0 0 1200 720" role="img" aria-labelledby="title desc">
  <title id="title">BasicFlow profile journey</title><desc id="desc">BasicFlow branches at initial step to a President shortcut or follows Weather to two LogicSteps, Favorites, Name, nested child work, Date of Birth, Address, and the terminal step.</desc>
  <defs><linearGradient id="bg" x1="0" y1="0" x2="1" y2="1"><stop stop-color="#18242e"/><stop offset="1" stop-color="#0d1218"/></linearGradient><linearGradient id="blue" x1="0" y1="0" x2="1" y2="1"><stop stop-color="#54bee8"/><stop offset="1" stop-color="#6979e9"/></linearGradient><marker id="arrow" markerWidth="9" markerHeight="9" refX="7" refY="4.5" orient="auto"><path d="M0 0 8 4.5 0 9Z" fill="#97a9b8"/></marker><filter id="shadow" x="-20%" y="-20%" width="140%" height="150%"><feDropShadow dx="0" dy="9" stdDeviation="10" flood-color="#000" flood-opacity=".28"/></filter></defs>
  <rect width="1200" height="720" rx="30" fill="url(#bg)"/><g fill="none" stroke="#2b3b49" opacity=".7"><path d="M0 120H1200M0 240H1200M0 360H1200M0 480H1200M0 600H1200"/><path d="M120 0V720M240 0V720M360 0V720M480 0V720M600 0V720M720 0V720M840 0V720M960 0V720M1080 0V720"/></g>
  <text x="54" y="64" fill="#f3f7fa" font-family="Inter,Arial,sans-serif" font-size="30" font-weight="700">BasicFlow profile journey</text><text x="54" y="94" fill="#9cafbe" font-family="Inter,Arial,sans-serif" font-size="16">A broad framework tour: one durable profile path, deterministic workers, response-driven routing, and nested children.</text>
  <g fill="none" stroke="#97a9b8" stroke-width="3" marker-end="url(#arrow)"><path d="M205 250H268"/><path d="M405 250H468"/><path d="M605 250H668"/><path d="M805 250H868"/><path d="M936 300V365H736V430"/><path d="M668 480H605"/><path d="M468 480H405"/><path d="M336 530V645H205"/></g>
  <g fill="none" stroke="#f5c76d" stroke-width="3" stroke-dasharray="8 8" marker-end="url(#arrow)"><path d="M138 300C70 340 70 160 138 200"/><path d="M936 300C936 378 205 350 205 430"/></g>
  <g filter="url(#shadow)"><rect x="68" y="200" width="137" height="100" rx="18" fill="url(#blue)"/><rect x="268" y="200" width="137" height="100" rx="18" fill="#314958" stroke="#7b99ab" stroke-width="2"/><rect x="468" y="200" width="137" height="100" rx="18" fill="#314958" stroke="#7b99ab" stroke-width="2"/><rect x="668" y="200" width="137" height="100" rx="18" fill="#c18cf4"/><rect x="868" y="200" width="137" height="100" rx="18" fill="#5bb7d9"/><rect x="668" y="430" width="137" height="100" rx="18" fill="#5bb7d9"/><rect x="468" y="430" width="137" height="100" rx="18" fill="#5bb7d9"/><rect x="268" y="430" width="137" height="100" rx="18" fill="#5bb7d9"/><rect x="68" y="430" width="137" height="100" rx="18" fill="#f4c866"/><rect x="68" y="610" width="137" height="70" rx="18" fill="#4cbf9f"/></g>
  <g font-family="Inter,Arial,sans-serif" text-anchor="middle"><g fill="#fff" font-size="16" font-weight="700"><text x="136" y="242">Weather</text><text x="336" y="242">FooLogic</text><text x="536" y="242">GooLogic</text><text x="736" y="242">Favorites</text><text x="936" y="242">Name</text><text x="736" y="472">DOB</text><text x="536" y="472">Address</text><text x="336" y="472">Terminal</text><text x="136" y="472" fill="#27313d">Nested work</text><text x="136" y="652">Complete</text></g><g font-size="11"><text x="136" y="267" fill="#e7f4fb">tool batch + stay</text><text x="336" y="267" fill="#dce9f1">no LLM</text><text x="536" y="267" fill="#dce9f1">no LLM</text><text x="736" y="267" fill="#f5ecfb">onResponse</text><text x="936" y="267" fill="#e7f4fb">Zod tool</text><text x="736" y="497" fill="#e7f4fb">cross-state</text><text x="536" y="497" fill="#e7f4fb">validator</text><text x="136" y="497" fill="#70561b">runStep / runSteps</text></g></g>
  <g font-family="Inter,Arial,sans-serif" font-size="13" fill="#d6e0e8"><text x="225" y="240">both cities</text><text x="426" y="240">state</text><text x="626" y="240">state</text><text x="826" y="240">JSON</text><text x="790" y="385" fill="#f5c76d">nested child work → returns</text><text x="65" y="370" fill="#f5c76d">invalid city → stay</text></g>
</svg>
